<svg width="24" height="24" viewBox="0 0 24 24" fill="none" xmlns="http://www.w3.org/2000/svg">
<path d="M10.4315 0C10.0999 0 9.79384 0.270754 9.69182 0.54152L9.02869 2.80611C8.56961 2.9538 8.11052 3.12611 7.67694 3.34764L5.56004 2.21536C5.27949 2.06767 4.87141 2.1169 4.64187 2.33843L2.42295 4.47993C2.19341 4.70147 2.1424 5.0707 2.29543 5.36608L3.46865 7.43374C3.23911 7.8522 3.06057 8.29528 2.90755 8.73835L0.561105 9.37834C0.229543 9.4768 0 9.77218 0 10.0922V13.1198C0 13.4398 0.229543 13.7352 0.561105 13.8337L2.90755 14.4737C3.06057 14.9167 3.26461 15.3598 3.46865 15.7783L2.29543 17.8459C2.1424 18.1167 2.19341 18.5105 2.42295 18.7321L4.64187 20.8736C4.87141 21.0951 5.27949 21.1443 5.56004 20.9966L7.67694 19.8644C8.11052 20.0859 8.56961 20.2582 9.02869 20.4059L9.69182 22.6705C9.79384 22.9659 10.0999 23.212 10.4315 23.212H13.5685C13.9001 23.212 14.2062 22.9905 14.3082 22.6705L14.9713 20.4059C15.4304 20.2582 15.8895 20.0613 16.3231 19.8644L18.44 20.9966C18.7205 21.1443 19.1286 21.0951 19.3581 20.8736L21.577 18.7321C21.8066 18.5105 21.8576 18.1413 21.7046 17.8459L20.5314 15.7783C20.7609 15.3598 20.9394 14.9167 21.0925 14.4737L23.4389 13.8337C23.745 13.7352 24 13.4398 24 13.1198V10.0922C24 9.77218 23.7705 9.45218 23.4389 9.37834L21.0925 8.73835C20.9394 8.29528 20.7609 7.8522 20.5314 7.43374L21.7046 5.36608C21.8576 5.09532 21.8066 4.70147 21.577 4.47993L19.3581 2.33843C19.1286 2.1169 18.7205 2.06767 18.44 2.21536L16.3231 3.34764C15.8895 3.12611 15.4304 2.9538 14.9713 2.80611L14.3082 0.54152C14.2062 0.246139 13.9001 0 13.5685 0H10.4315ZM11.0181 1.4769H13.0074L13.6196 3.56919C13.6961 3.81534 13.9001 4.01225 14.1552 4.0861C14.7928 4.2584 15.4049 4.50455 15.9915 4.82455C16.221 4.94762 16.5016 4.94762 16.7311 4.82455L18.7205 3.7661L20.1233 5.11993L19.0266 7.0153C18.899 7.23683 18.899 7.50759 19.0266 7.72912C19.3581 8.27066 19.6132 8.88604 19.7917 9.50141C19.8682 9.74756 20.0723 9.94448 20.3273 10.0183L22.4952 10.6091V12.5291L20.3273 13.1198C20.0723 13.1937 19.8682 13.3906 19.7917 13.6367C19.6132 14.2521 19.3581 14.8429 19.0266 15.409C18.899 15.6306 18.899 15.9013 19.0266 16.1229L20.1233 18.0428L18.7205 19.3967L16.7311 18.3382C16.5016 18.2152 16.1955 18.2152 15.9915 18.3382C15.4304 18.6582 14.8183 18.9044 14.1552 19.0767C13.9001 19.1505 13.6961 19.3474 13.6196 19.5936L13.0074 21.6859H11.0181L10.406 19.5936C10.3294 19.3474 10.1254 19.1505 9.87035 19.0767C9.23273 18.9044 8.62062 18.6582 8.03401 18.3382C7.80446 18.2152 7.52391 18.2152 7.29437 18.3382L5.305 19.3967L3.90223 18.0428L4.99894 16.1229C5.12646 15.9013 5.12646 15.6306 4.99894 15.409C4.66738 14.8675 4.41233 14.2521 4.23379 13.6367C4.15728 13.3906 3.95324 13.1937 3.69819 13.1198L1.53029 12.5291V10.6091L3.69819 10.0183C3.95324 9.94448 4.15728 9.74756 4.23379 9.50141C4.41233 8.88604 4.66738 8.29527 4.99894 7.72912C5.12646 7.50759 5.12646 7.23683 4.99894 7.0153L3.90223 5.11993L5.305 3.7661L7.29437 4.82455C7.52391 4.94762 7.82997 4.94762 8.03401 4.82455C8.59511 4.50455 9.20723 4.2584 9.87035 4.0861C10.1254 4.01225 10.3294 3.81534 10.406 3.56919L11.0181 1.4769ZM12.0128 6.15377C8.92667 6.15377 6.4017 8.59066 6.4017 11.5691C6.4017 14.5475 8.92667 16.9844 12.0128 16.9844C15.0988 16.9844 17.6238 14.5475 17.6238 11.5691C17.6238 8.56605 15.0988 6.15377 12.0128 6.15377ZM12.0128 7.63067C14.2827 7.63067 16.0935 9.37834 16.0935 11.5691C16.0935 13.7598 14.2827 15.5075 12.0128 15.5075C9.74283 15.5075 7.93199 13.7598 7.93199 11.5691C7.93199 9.37834 9.74283 7.63067 12.0128 7.63067Z" fill="white"/>
</svg>
