<svg width="86" height="88" viewBox="0 0 86 88" fill="none" xmlns="http://www.w3.org/2000/svg">
<path d="M85.7463 9.35059H9.45459V87.3762H85.7463V9.35059Z" fill="#B2DFEE"/>
<path fill-rule="evenodd" clip-rule="evenodd" d="M5.20897 5.20946H73.0243V73.0248H5.20897V5.20946ZM0.970215 0.970703H77.2619V77.2624H0.970215V0.970703Z" fill="black"/>
<path d="M51.4988 31.6616H57.1402L58.6119 28.1057C59.0409 27.063 59.4699 26.0215 59.9001 24.7941H60.0228C60.5138 26.0203 60.9428 27.063 61.4325 28.1057L63.027 31.6616H68.9138L63.518 21.6671L68.6076 11.7334H62.9662L61.8008 14.9831C61.4325 15.903 61.0035 17.0065 60.5745 18.2947H60.4518C59.9001 17.0065 59.4711 15.903 59.0421 14.9831L57.6931 11.7334H51.8063L56.8959 21.4216L51.4988 31.6616ZM33.8455 31.6616H47.0289V27.2477H39.1186V23.6918H45.6179V19.2766H39.1186V16.1497H46.7214V11.7346H33.8455V31.6616ZM17.8473 31.6616H23.1205V16.1497H28.3936V11.7346H12.5742V16.1497H17.8473V31.6616Z" fill="black"/>
<path d="M31.6997 59.853H37.3411L38.8128 56.2971C39.2418 55.2544 39.6708 54.2129 40.101 52.9855H40.2237C40.7147 54.2117 41.1437 55.2544 41.6335 56.2971L43.2279 59.853H49.1148L43.7189 49.8585L48.8085 39.9248H43.1672L42.0017 43.1745C41.6335 44.0944 41.2045 45.1979 40.7755 46.4861H40.6527C40.101 45.1979 39.672 44.0944 39.243 43.1745L37.894 39.9248H32.0072L37.0968 49.613L31.6997 59.853ZM14.0464 59.853H27.2298V55.4379H19.3195V51.882H25.8189V47.4669H19.3195V44.3399H26.9224V39.9248H14.0464V59.853Z" fill="black"/>
<path d="M52.6293 46.2886L61.388 49.9876L61.4619 52.4674L52.9653 48.5802C52.9653 48.5802 51.9321 48.33 51.987 47.211C52.0263 46.4281 52.6293 46.2886 52.6293 46.2886ZM68.7871 42.9246C68.8204 43.5931 68.8478 44.5726 68.7751 45.2281L61.8003 52.2041L61.7336 49.9804L68.7871 42.9246ZM52.4064 49.474L61.9338 53.7485L69.9513 45.7297C70.1348 45.0231 69.2649 44.8801 69.1529 44.8658C69.1946 44.0948 69.1517 43.1379 69.1183 42.5957L70.0061 41.7079L59.4182 37.8242L51.5413 45.7023C51.5413 45.7023 50.955 46.0658 50.9824 47.379C51.0098 48.691 52.4064 49.474 52.4064 49.474Z" fill="black"/>
<path d="M68.7754 51.5242L61.8005 58.5002L61.7338 56.2765L68.7885 49.2219C68.8206 49.8904 68.8492 50.8687 68.7754 51.5242ZM52.9643 54.8751C52.9643 54.8751 51.9312 54.6237 51.986 53.5059C52.0253 52.723 52.6283 52.5847 52.6283 52.5847L61.387 56.2837L61.4609 58.7635L52.9643 54.8751ZM68.8433 47.5762L62.0019 54.3186L53.1049 50.4326L51.5403 51.9984C51.5403 51.9984 50.954 52.3619 50.9814 53.6751C51.01 54.9883 52.4066 55.7701 52.4066 55.7701L61.934 60.0446L69.9515 52.0259C70.135 51.3204 69.2651 51.1762 69.1531 51.1619C69.1948 50.3909 69.1519 49.434 69.1186 48.8906L70.0063 48.0028L68.8433 47.5762Z" fill="black"/>
</svg>
