<svg width="24" height="17" viewBox="0 0 24 17" fill="none" xmlns="http://www.w3.org/2000/svg">
<path d="M2.57143 0C1.17143 0 0 1.16167 0 2.55V14.45C0 15.8383 1.17143 17 2.57143 17H21.4286C22.8286 17 24 15.8383 24 14.45V2.55C24 1.16167 22.8286 0 21.4286 0H2.57143ZM2.71429 1.7H21.2857L12.5714 9.66166C12.1714 10.03 11.8 10.03 11.4 9.66166L2.71429 1.7ZM1.71429 3.08832L10.2286 10.9083C11.2 11.815 12.7714 11.815 13.7429 10.9083L22.2857 3.08832V14.45C22.2857 14.9317 21.9143 15.3 21.4286 15.3H2.57143C2.08571 15.3 1.71429 14.9317 1.71429 14.45V3.08832Z" fill="#46ABCC"/>
</svg>
