<svg width="206" height="210" viewBox="0 0 206 210" fill="none" xmlns="http://www.w3.org/2000/svg">
<path d="M205.249 20.9385H21.1885V209.182H205.249V20.9385Z" fill="#46ABCC"/>
<path fill-rule="evenodd" clip-rule="evenodd" d="M10.9446 10.9451H174.555V174.556H10.9446V10.9451ZM0.718262 0.71875H184.779V184.779H0.718262V0.71875Z" fill="black"/>
<path d="M122.624 74.7641H136.235L139.785 66.1852C140.82 63.6695 141.855 61.1568 142.893 58.1955H143.189C144.374 61.1539 145.409 63.6695 146.59 66.1852L150.437 74.7641H164.64L151.622 50.6515L163.901 26.6855H150.29L147.479 34.5257C146.59 36.7452 145.555 39.4074 144.52 42.5153H144.224C142.893 39.4074 141.858 36.7452 140.823 34.5257L137.569 26.6855H123.366L135.645 50.0593L122.624 74.7641ZM80.0341 74.7641H111.84V64.1151H92.756V55.5362H108.436V44.8843H92.756V37.3403H111.098V26.6884H80.0341V74.7641ZM41.4372 74.7641H54.1591V37.3403H66.8809V26.6884H28.7153V37.3403H41.4372V74.7641Z" fill="black"/>
<path d="M74.8559 142.778H88.4661L92.0168 134.199C93.0518 131.683 94.0868 129.17 95.1246 126.209H95.4207C96.6052 129.168 97.6403 131.683 98.8219 134.199L102.669 142.778H116.871L103.853 118.665L116.132 94.6992H102.522L99.7103 102.539C98.8219 104.759 97.7869 107.421 96.7519 110.529H96.4558C95.1246 107.421 94.0896 104.759 93.0546 102.539L89.8001 94.6992H75.5976L87.8767 118.073L74.8559 142.778ZM32.2656 142.778H64.0718V132.126H44.9875V123.547H60.6678V112.895H44.9875V105.351H63.33V94.6992H32.2656V142.778Z" fill="black"/>
<path d="M125.35 110.055L146.481 118.979L146.659 124.962L126.16 115.584C126.16 115.584 123.668 114.98 123.8 112.28C123.895 110.391 125.35 110.055 125.35 110.055ZM164.332 101.939C164.412 103.552 164.478 105.915 164.303 107.496L147.476 124.326L147.315 118.962L164.332 101.939ZM124.812 117.74L147.798 128.052L167.141 108.707C167.583 107.002 165.485 106.657 165.214 106.622C165.315 104.762 165.211 102.453 165.131 101.145L167.273 99.0034L141.728 89.6338L122.725 108.64C122.725 108.64 121.31 109.517 121.376 112.686C121.442 115.851 124.812 117.74 124.812 117.74Z" fill="black"/>
<path d="M164.303 122.685L147.475 139.515L147.314 134.151L164.334 117.131C164.412 118.743 164.481 121.104 164.303 122.685ZM126.157 130.77C126.157 130.77 123.665 130.163 123.797 127.466C123.892 125.577 125.347 125.244 125.347 125.244L146.478 134.168L146.656 140.151L126.157 130.77ZM164.467 113.16L147.961 129.427L126.497 120.052L122.722 123.829C122.722 123.829 121.307 124.706 121.373 127.874C121.442 131.043 124.812 132.929 124.812 132.929L147.797 143.241L167.14 123.895C167.583 122.193 165.484 121.846 165.214 121.811C165.315 119.951 165.211 117.642 165.131 116.331L167.273 114.189L164.467 113.16Z" fill="black"/>
</svg>
