<svg width="21" height="23" viewBox="0 0 21 23" fill="none" xmlns="http://www.w3.org/2000/svg">
<path d="M19.9765 11.512C19.9765 11.4641 19.9765 11.4401 19.9765 11.3922C19.9765 11.3683 19.9765 11.3444 19.9531 11.3444C19.9531 11.3204 19.9531 11.3204 19.9296 11.2965C19.9296 11.2725 19.9062 11.2486 19.8827 11.2246C19.8827 11.2246 19.8827 11.2007 19.8593 11.2007C19.8358 11.1767 19.8123 11.1288 19.7889 11.1049L15.8716 7.05815C15.637 6.8187 15.2617 6.8187 15.0506 7.05815C14.816 7.29761 14.816 7.68073 15.0506 7.89624L18.0062 10.9133H7.63827C7.30988 10.9133 7.05185 11.1767 7.05185 11.512C7.05185 11.8472 7.30988 12.1106 7.63827 12.1106H17.9827L15.0272 15.1277C14.7926 15.3672 14.7926 15.7503 15.0272 15.9658C15.1444 16.0855 15.2852 16.1334 15.4494 16.1334C15.6136 16.1334 15.7543 16.0855 15.8716 15.9658L19.8358 11.919C19.8593 11.8951 19.8827 11.8712 19.9062 11.8472C19.9062 11.8233 19.9296 11.8233 19.9296 11.7993C19.9296 11.7754 19.9531 11.7754 19.9531 11.7514C19.9531 11.7275 19.9765 11.7035 19.9765 11.6796C19.9765 11.6556 19.9765 11.6556 20 11.6317C19.9765 11.5838 20 11.5599 19.9765 11.512C20 11.512 20 11.512 19.9765 11.512ZM12.7519 14.146C12.4235 14.146 12.1654 14.4094 12.1654 14.7446V20.2281C12.1654 20.5633 11.9074 20.8267 11.579 20.8267H2.75926C2.43086 20.8267 2.17284 20.5633 2.17284 20.2281V2.7959C2.17284 2.46066 2.43086 2.19726 2.75926 2.19726H11.579C11.9074 2.19726 12.1654 2.46066 12.1654 2.7959V8.11174C12.1654 8.44698 12.4235 8.71038 12.7519 8.71038C13.0802 8.71038 13.3383 8.44698 13.3383 8.11174V2.7959C13.3383 1.81414 12.5407 1 11.579 1H2.75926C1.79753 1 1 1.81414 1 2.7959V20.2041C1 21.1859 1.79753 22 2.75926 22H11.579C12.5407 22 13.3383 21.1859 13.3383 20.2041V14.7446C13.3383 14.4094 13.0802 14.146 12.7519 14.146Z" fill="white"/>
<path d="M19.9765 11.512C19.9765 11.4641 19.9765 11.4401 19.9765 11.3922C19.9765 11.3683 19.9765 11.3444 19.9531 11.3444C19.9531 11.3204 19.9531 11.3204 19.9296 11.2965C19.9296 11.2725 19.9062 11.2486 19.8827 11.2246C19.8827 11.2246 19.8827 11.2007 19.8593 11.2007C19.8358 11.1767 19.8123 11.1288 19.7889 11.1049L15.8716 7.05815C15.637 6.8187 15.2617 6.8187 15.0506 7.05815C14.816 7.2976 14.816 7.68073 15.0506 7.89624L18.0062 10.9133H7.63827C7.30988 10.9133 7.05185 11.1767 7.05185 11.512C7.05185 11.8472 7.30988 12.1106 7.63827 12.1106H17.9827L15.0272 15.1277C14.7926 15.3672 14.7926 15.7503 15.0272 15.9658C15.1444 16.0855 15.2852 16.1334 15.4494 16.1334C15.6136 16.1334 15.7543 16.0855 15.8716 15.9658L19.8358 11.919C19.8593 11.8951 19.8827 11.8712 19.9062 11.8472C19.9062 11.8233 19.9296 11.8233 19.9296 11.7993C19.9296 11.7754 19.9531 11.7754 19.9531 11.7514C19.9531 11.7275 19.9765 11.7035 19.9765 11.6796C19.9765 11.6556 19.9765 11.6556 20 11.6317C19.9765 11.5838 20 11.5599 19.9765 11.512ZM19.9765 11.512C20 11.512 20 11.512 19.9765 11.512ZM12.7519 14.146C12.4235 14.146 12.1654 14.4093 12.1654 14.7446V20.2281C12.1654 20.5633 11.9074 20.8267 11.579 20.8267H2.75926C2.43086 20.8267 2.17284 20.5633 2.17284 20.2281V2.7959C2.17284 2.46066 2.43086 2.19726 2.75926 2.19726H11.579C11.9074 2.19726 12.1654 2.46066 12.1654 2.7959V8.11174C12.1654 8.44698 12.4235 8.71038 12.7519 8.71038C13.0802 8.71038 13.3383 8.44698 13.3383 8.11174V2.7959C13.3383 1.81414 12.5407 1 11.579 1H2.75926C1.79753 1 1 1.81414 1 2.7959V20.2041C1 21.1859 1.79753 22 2.75926 22H11.579C12.5407 22 13.3383 21.1859 13.3383 20.2041V14.7446C13.3383 14.4093 13.0802 14.146 12.7519 14.146Z" stroke="white" stroke-width="0.5" stroke-miterlimit="10"/>
</svg>
