<svg width="22" height="28" viewBox="0 0 22 28" fill="none" xmlns="http://www.w3.org/2000/svg">
<path d="M20.6616 27.1248H0.898331C0.660079 27.1248 0.431585 27.0032 0.263115 26.7867C0.0946455 26.5703 0 26.2767 0 25.9705V23.662C0 21.5192 0.662517 19.4641 1.84181 17.9488C3.02109 16.4336 4.62055 15.5823 6.28832 15.5823H15.2716C16.9394 15.5823 18.5388 16.4336 19.7181 17.9488C20.8974 19.4641 21.5599 21.5192 21.5599 23.662V25.9705C21.5599 26.2767 21.4653 26.5703 21.2968 26.7867C21.1284 27.0032 20.8999 27.1248 20.6616 27.1248ZM1.79666 24.8163H19.7633V23.662C19.7633 22.1314 19.2901 20.6635 18.4477 19.5812C17.6054 18.4989 16.4629 17.8908 15.2716 17.8908H6.28832C5.09706 17.8908 3.95459 18.4989 3.11224 19.5812C2.26989 20.6635 1.79666 22.1314 1.79666 23.662V24.8163ZM10.78 13.851C9.71393 13.851 8.67183 13.4448 7.78545 12.6838C6.89908 11.9228 6.20823 10.8412 5.80027 9.57574C5.39232 8.31028 5.28558 6.9178 5.49355 5.57439C5.70153 4.23098 6.21487 2.99697 6.96868 2.02843C7.72248 1.05988 8.68288 0.400295 9.72844 0.133074C10.774 -0.134147 11.8577 0.00300071 12.8426 0.527174C13.8275 1.05135 14.6693 1.939 15.2616 3.07789C15.8538 4.21678 16.17 5.55575 16.17 6.92548C16.17 8.76223 15.6021 10.5238 14.5913 11.8225C13.5804 13.1213 12.2095 13.851 10.78 13.851ZM10.78 2.3085C10.0693 2.3085 9.37455 2.57928 8.78363 3.0866C8.19271 3.59392 7.73214 4.31499 7.46017 5.15864C7.1882 6.00228 7.11704 6.9306 7.25569 7.82621C7.39434 8.72182 7.73657 9.54448 8.23911 10.1902C8.74164 10.8359 9.38191 11.2756 10.0789 11.4538C10.776 11.6319 11.4985 11.5405 12.1551 11.191C12.8117 10.8416 13.3729 10.2498 13.7677 9.49054C14.1625 8.73128 14.3733 7.83863 14.3733 6.92548C14.3733 5.70098 13.9947 4.52663 13.3208 3.66078C12.647 2.79493 11.733 2.3085 10.78 2.3085Z" fill="#46ABCC"/>
</svg>
