<svg width="23" height="28" viewBox="0 0 23 28" fill="none" xmlns="http://www.w3.org/2000/svg">
<path d="M11.5 0C7.32714 0 3.94286 3.43333 3.94286 7.66667V11.3333H2.3C1.05143 11.3333 0 12.4 0 13.6667V25.6667C0 26.9333 1.05143 28 2.3 28H20.7C21.9486 28 23 26.9333 23 25.6667V13.6667C23 12.4 21.9486 11.3333 20.7 11.3333H19.0571V7.66667C19.0571 3.43333 15.6729 0 11.5 0ZM11.5 2C14.6214 2 17.0857 4.5 17.0857 7.66667V11.3333H5.91429V7.66667C5.91429 4.5 8.37857 2 11.5 2ZM2.3 13.3333H20.7C20.8971 13.3333 21.0286 13.4667 21.0286 13.6667V25.6667C21.0286 25.8667 20.8971 26 20.7 26H2.3C2.10286 26 1.97143 25.8667 1.97143 25.6667V13.6667C1.97143 13.4667 2.10286 13.3333 2.3 13.3333ZM11.5 15.3333C9.89 15.3333 8.54286 16.7 8.54286 18.3333C8.54286 19 8.80571 19.6 9.2 20.1V21.6667C9.2 22.9333 10.2514 24 11.5 24C12.7486 24 13.8 22.9333 13.8 21.6667V20.1C14.1943 19.6 14.4571 19 14.4571 18.3333C14.4571 16.6667 13.11 15.3333 11.5 15.3333ZM11.5 17.3333C12.0586 17.3333 12.4857 17.7667 12.4857 18.3333C12.4857 18.6333 12.3543 18.9 12.1571 19.0667C11.96 19.2667 11.8286 19.5333 11.8286 19.8V21.6333C11.8286 21.8333 11.6971 21.9667 11.5 21.9667C11.3029 21.9667 11.1714 21.8333 11.1714 21.6333V19.8C11.1714 19.5 11.04 19.2333 10.8429 19.0667C10.6457 18.8667 10.5143 18.6333 10.5143 18.3333C10.5143 17.7667 10.9414 17.3333 11.5 17.3333Z" fill="#46ABCC"/>
</svg>
