<svg width="19" height="24" viewBox="0 0 19 24" fill="none" xmlns="http://www.w3.org/2000/svg">
<path d="M4.68337 8.53032H10.0667C10.3784 8.53032 10.6334 8.28422 10.6334 7.98342C10.6334 7.68263 10.3784 7.43652 10.0667 7.43652H4.68337C4.3717 7.43652 4.1167 7.68263 4.1167 7.98342C4.1167 8.28422 4.3717 8.53032 4.68337 8.53032Z" fill="white" stroke="white" stroke-width="0.5" stroke-miterlimit="10"/>
<path d="M1 21.075C1 22.1475 1.87833 23 2.98333 23H16.0167C17.1217 23 18 22.1475 18 21.075V6.5825C18 6.115 17.83 5.675 17.5183 5.3175L14.2033 1.66C14.0333 1.4675 13.835 1.33 13.6367 1.22C13.5233 1.0825 13.3817 1 13.1833 1C13.1267 1 13.07 1 13.0133 1.0275C12.9283 1 12.815 1 12.73 1H2.98333C1.87833 1 1 1.8525 1 2.925V21.075ZM13.75 2.815L16.0733 5.4H14.6C14.1183 5.4 13.75 5.0425 13.75 4.575V2.815ZM2.13333 2.925C2.13333 2.4575 2.50167 2.1 2.98333 2.1H12.6167V4.575C12.6167 5.6475 13.495 6.5 14.6 6.5H16.8667C16.8667 6.5275 16.8667 6.555 16.8667 6.5825V21.075C16.8667 21.5425 16.4983 21.9 16.0167 21.9H2.98333C2.50167 21.9 2.13333 21.5425 2.13333 21.075V2.925Z" fill="white" stroke="white" stroke-width="0.5" stroke-miterlimit="10"/>
<path d="M4.57895 11H14.4211C14.7395 11 15 10.775 15 10.5C15 10.225 14.7395 10 14.4211 10H4.57895C4.26053 10 4 10.225 4 10.5C4 10.775 4.26053 11 4.57895 11Z" fill="white" stroke="white" stroke-width="0.5" stroke-miterlimit="10"/>
<path d="M4.57895 14H14.4211C14.7395 14 15 13.775 15 13.5C15 13.225 14.7395 13 14.4211 13H4.57895C4.26053 13 4 13.225 4 13.5C4 13.775 4.26053 14 4.57895 14Z" fill="white" stroke="white" stroke-width="0.5" stroke-miterlimit="10"/>
<path d="M4.57895 17H14.4211C14.7395 17 15 16.775 15 16.5C15 16.225 14.7395 16 14.4211 16H4.57895C4.26053 16 4 16.225 4 16.5C4 16.775 4.26053 17 4.57895 17Z" fill="white" stroke="white" stroke-width="0.5" stroke-miterlimit="10"/>
<path d="M4.57895 19H14.4211C14.7395 19 15 18.775 15 18.5C15 18.225 14.7395 18 14.4211 18H4.57895C4.26053 18 4 18.225 4 18.5C4 18.775 4.26053 19 4.57895 19Z" fill="white" stroke="white" stroke-width="0.5" stroke-miterlimit="10"/>
</svg>
