<svg width="35" height="55" viewBox="0 0 35 55" fill="none" xmlns="http://www.w3.org/2000/svg">
<path d="M17.0241 4.77051C16.6823 4.81373 16.4088 5.20274 16.4088 5.63496V12.1184L10.4948 18.3425C10.3238 18.5154 10.2555 18.7747 10.2555 19.034V22.2758L2.52962 25.5607C2.25614 25.6903 2.05103 25.9929 2.05103 26.3819V37.6199C2.05103 38.0953 2.35869 38.4843 2.73473 38.4843H31.4502C31.8263 38.4843 32.1339 38.0953 32.1339 37.6199V26.3819C32.1339 25.9929 31.9288 25.6903 31.6553 25.5607L23.9295 22.2758V19.034C23.9295 18.7747 23.827 18.5154 23.6902 18.3425L17.7762 12.1184V9.95725H21.8784C22.2544 9.95725 22.5621 9.56824 22.5621 9.09279V5.63496C22.5621 5.15951 22.2544 4.77051 21.8784 4.77051H17.0925C17.0583 4.77051 17.0583 4.77051 17.0241 4.77051ZM17.7762 6.49942H21.1947V8.22833H17.7762V6.49942ZM17.0925 13.6744L22.5621 19.423V36.7554H19.8273V27.6786C19.8273 27.2032 19.5196 26.8142 19.1436 26.8142H15.0414C15.0072 26.8142 15.0072 26.8142 14.973 26.8142C14.6312 26.8574 14.3577 27.2464 14.3577 27.6786V36.7554H11.6229V19.423L17.0925 13.6744ZM14.6312 18.1696C14.2893 18.2128 14.0158 18.6018 14.0158 19.034V22.4919C14.0158 22.9673 14.3235 23.3563 14.6995 23.3563H19.4854C19.8615 23.3563 20.1691 22.9673 20.1691 22.4919V19.034C20.1691 18.5586 19.8615 18.1696 19.4854 18.1696H14.6995C14.6653 18.1696 14.6653 18.1696 14.6312 18.1696ZM15.3832 19.8985H18.8017V21.6274H15.3832V19.8985ZM10.2555 24.0911V36.7122H3.41843V26.9438L10.2555 24.0911ZM23.9295 24.0911L30.7665 26.987V36.7554H23.9295V24.0911ZM4.71747 28.5431C4.37561 28.5863 4.10213 28.9753 4.10213 29.4075V32.8653C4.10213 33.3408 4.4098 33.7298 4.78584 33.7298H8.88805C9.26409 33.7298 9.57175 33.3408 9.57175 32.8653V29.4075C9.57175 28.9321 9.26409 28.5431 8.88805 28.5431H4.78584C4.75165 28.5431 4.75165 28.5431 4.71747 28.5431ZM15.7251 28.5431H18.4599V36.7554H15.7251V28.5431ZM25.2285 28.5431C24.8867 28.5863 24.6132 28.9753 24.6132 29.4075V32.8653C24.6132 33.3408 24.9209 33.7298 25.2969 33.7298H29.3991C29.7752 33.7298 30.0828 33.3408 30.0828 32.8653V29.4075C30.0828 28.9321 29.7752 28.5431 29.3991 28.5431H25.2969C25.2627 28.5431 25.2627 28.5431 25.2285 28.5431ZM5.46954 30.272H8.20435V32.0009H5.46954V30.272ZM25.9806 30.272H28.7154V32.0009H25.9806V30.272Z" fill="#46ABCC"/>
</svg>
