<svg width="20" height="19" viewBox="0 0 20 19" fill="none" xmlns="http://www.w3.org/2000/svg">
<path d="M19.6677 17.2016L14.7627 12.5364C17.2289 9.48697 16.9823 5.0823 14.0229 2.29355C12.4062 0.75583 10.3236 0 8.2137 0C6.10376 0 4.02122 0.75583 2.40451 2.29355C-0.801504 5.34294 -0.801504 10.2949 2.40451 13.3443C4.02122 14.882 6.10376 15.6379 8.2137 15.6379C9.96742 15.6379 11.7211 15.1166 13.1734 14.048L18.1058 18.6872C18.325 18.8958 18.599 19 18.9004 19C19.1744 19 19.4759 18.8958 19.6951 18.6872C20.1061 18.2963 20.1061 17.6187 19.6677 17.2016ZM8.2411 13.5267C6.62439 13.5267 5.1447 12.9273 3.99382 11.8587C1.66466 9.64335 1.66466 6.02058 3.99382 3.77915C5.11729 2.71056 6.62439 2.11111 8.2411 2.11111C9.85781 2.11111 11.3375 2.71056 12.4884 3.77915C13.6393 4.84774 14.2421 6.28121 14.2421 7.81893C14.2421 9.35665 13.6119 10.7641 12.4884 11.8587C11.3649 12.9534 9.83041 13.5267 8.2411 13.5267Z" fill="white"/>
</svg>
