<svg width="20" height="20" viewBox="0 0 20 20" fill="none" xmlns="http://www.w3.org/2000/svg">
<path d="M10 0C4.5 0 0 4.34302 0 9.65116C0 14.9593 4.5 19.3023 10 19.3023C15.5 19.3023 20 14.9593 20 9.65116C20 4.34302 15.5 0 10 0ZM10 17.9236C5.28571 17.9236 1.42857 14.201 1.42857 9.65116C1.42857 5.10133 5.28571 1.37874 10 1.37874C14.7143 1.37874 18.5714 5.10133 18.5714 9.65116C18.5714 14.201 14.7143 17.9236 10 17.9236Z" fill="white"/>
<path d="M9.71443 5.58422C10.7144 5.58422 11.5001 6.20466 11.5001 7.0319C11.5001 7.44552 11.7859 7.72127 12.2144 7.72127C12.643 7.72127 12.9287 7.44552 12.9287 7.0319C12.9287 5.7221 11.8573 4.61911 10.4287 4.27442V3.44718C10.4287 3.03356 10.143 2.75781 9.71443 2.75781C9.28585 2.75781 9.00014 3.03356 9.00014 3.44718V4.27442C7.57157 4.55017 6.50014 5.65316 6.50014 7.0319C6.50014 8.27276 7.28585 9.30681 8.50014 9.72044L10.4287 10.3409C11.0716 10.5477 11.4287 11.0302 11.4287 11.7196C11.4287 12.4779 10.643 13.1673 9.643 13.1673C8.643 13.1673 7.85728 12.5468 7.85728 11.7196C7.85728 11.306 7.57157 11.0302 7.143 11.0302C6.71443 11.0302 6.42871 11.306 6.42871 11.7196C6.42871 13.0294 7.50014 14.1324 8.92871 14.4771V15.3043C8.92871 15.7179 9.21443 15.9937 9.643 15.9937C10.0716 15.9937 10.3573 15.7179 10.3573 15.3043V14.4771C11.7859 14.2013 12.8573 13.0983 12.8573 11.7196C12.8573 10.4787 12.0716 9.44469 10.8573 9.03107L9.00014 8.3417C8.35728 8.13489 8.00014 7.65233 8.00014 6.96296C7.92871 6.20466 8.71443 5.58422 9.71443 5.58422Z" fill="white"/>
</svg>
