<svg width="32" height="50" viewBox="0 0 32 50" fill="none" xmlns="http://www.w3.org/2000/svg">
<path fill-rule="evenodd" clip-rule="evenodd" d="M13.9307 28.48C13.7174 28.0267 13.5894 27.52 13.5894 26.9867C13.6107 25.28 14.72 24 16 24C17.28 24 18.3894 25.28 18.3894 26.96C18.3894 27.4933 18.2827 27.9733 18.0907 28.4C18.048 28.48 18.0267 28.56 17.984 28.6133C17.9627 28.6667 17.92 28.72 17.8987 28.7733L17.8774 28.8267V29.6533C17.8774 30.9333 17.0454 31.9733 16.0214 31.9733C14.9974 31.9733 14.1654 30.9333 14.1654 29.6533V28.9333L14.1227 28.8533C14.08 28.7733 13.9947 28.64 13.9307 28.48ZM15.4667 27.76L15.424 27.7067C15.3814 27.6267 15.3387 27.5467 15.296 27.4667C15.232 27.3333 15.1894 27.1467 15.1894 26.9867C15.1894 26.8 15.232 26.6133 15.3174 26.48C15.4667 26.2133 15.7014 26.0267 16 26.0267C16.2774 26.0267 16.5334 26.2133 16.6614 26.48C16.7467 26.64 16.7894 26.8 16.7894 27.0133C16.7894 27.1733 16.7467 27.3333 16.6827 27.4933C16.64 27.5733 16.6187 27.6533 16.576 27.7067L16.5547 27.7333C16.4907 27.84 16.4267 27.9733 16.384 28.1067C16.32 28.2667 16.2774 28.4267 16.2774 28.6133V29.7333C16.2774 29.92 16.1707 30.0533 16.0214 30.0533C15.872 30.0533 15.7654 29.92 15.7654 29.7333V28.72C15.7654 28.6933 15.7654 28.6667 15.7654 28.64C15.744 28.4533 15.7014 28.2933 15.616 28.1333C15.5734 27.9733 15.5094 27.8667 15.4667 27.76Z" fill="#46ABCC"/>
<path fill-rule="evenodd" clip-rule="evenodd" d="M23.2106 11.9997V16.9063C23.2106 16.933 23.2106 16.9597 23.2106 17.013H24.8106C26.1333 17.013 27.2 18.3463 27.2 19.9997V33.9997C27.2 35.653 26.1333 36.9863 24.8106 36.9863H7.21062C5.88796 36.9863 4.82129 35.653 4.82129 33.9997V19.9997C4.82129 18.3463 5.88796 17.013 7.21062 17.013H8.81062C8.81062 16.9863 8.81062 17.0397 8.81062 17.013L10.4106 11.9997H8.81062C8.81062 7.03966 12.032 2.98633 16.0213 2.98633C20.0106 2.98633 23.2106 7.03966 23.2106 11.9997ZM10.4746 17.013H21.5253C21.568 17.013 21.6106 16.9597 21.6106 16.9063V11.9997C21.6106 8.13299 19.0933 5.01299 16.0213 5.01299C12.9493 5.01299 10.4106 8.13299 10.4106 11.9997L8.81062 17.013H10.4746C10.4746 17.0663 10.432 17.013 10.4746 17.013ZM7.21062 18.9863H24.8106C25.2586 18.9863 25.6213 19.4397 25.6213 19.9997V33.9997C25.6213 34.5597 25.2586 35.013 24.8106 35.013H7.21062C6.76262 35.013 6.39996 34.5597 6.39996 33.9997V19.9997C6.39996 19.4397 6.76262 18.9863 7.21062 18.9863Z" fill="#46ABCC"/>
</svg>
