<svg width="16" height="20" viewBox="0 0 16 20" fill="none" xmlns="http://www.w3.org/2000/svg">
<path d="M15.1664 19.8182H1.52976C1.36537 19.8182 1.20771 19.7318 1.09146 19.5781C0.975217 19.4244 0.909912 19.216 0.909912 18.9986V17.3596C0.909912 15.8382 1.36705 14.3791 2.18076 13.3032C2.99447 12.2274 4.09809 11.623 5.24885 11.623H11.4473C12.5981 11.623 13.7017 12.2274 14.5154 13.3032C15.3291 14.3791 15.7863 15.8382 15.7863 17.3596V18.9986C15.7863 19.216 15.721 19.4244 15.6047 19.5781C15.4885 19.7318 15.3308 19.8182 15.1664 19.8182ZM2.14961 18.1791H14.5466V17.3596C14.5466 16.2729 14.22 15.2306 13.6388 14.4622C13.0576 13.6938 12.2693 13.262 11.4473 13.262H5.24885C4.42688 13.262 3.63858 13.6938 3.05736 14.4622C2.47613 15.2306 2.14961 16.2729 2.14961 17.3596V18.1791ZM8.34809 10.3937C7.61252 10.3937 6.89348 10.1054 6.28188 9.56507C5.67027 9.02477 5.19359 8.25683 4.9121 7.35835C4.63061 6.45987 4.55696 5.47121 4.70046 4.51738C4.84397 3.56356 5.19817 2.68742 5.7183 1.99975C6.23842 1.31209 6.9011 0.84378 7.62253 0.654053C8.34397 0.464326 9.09175 0.561701 9.77133 0.933864C10.4509 1.30603 11.0317 1.93626 11.4404 2.74487C11.8491 3.55348 12.0672 4.50415 12.0672 5.47666C12.0672 6.78075 11.6753 8.03143 10.9779 8.95357C10.2804 9.8757 9.33445 10.3937 8.34809 10.3937ZM8.34809 2.1986C7.85771 2.1986 7.37835 2.39086 6.97061 2.75105C6.56288 3.11125 6.24509 3.62321 6.05743 4.2222C5.86977 4.82119 5.82067 5.4803 5.91634 6.11618C6.01201 6.75206 6.24815 7.33615 6.5949 7.7946C6.94164 8.25304 7.38343 8.56525 7.86439 8.69173C8.34534 8.81822 8.84386 8.7533 9.29691 8.50519C9.74996 8.25708 10.1372 7.83693 10.4096 7.29785C10.6821 6.75878 10.8275 6.125 10.8275 5.47666C10.8275 4.60726 10.5663 3.77348 10.1013 3.15872C9.63631 2.54397 9.00567 2.1986 8.34809 2.1986V2.1986Z" fill="white"/>
</svg>
